<?xml version="1.0" encoding="utf-8"?>
<!-- Generator: Adobe Illustrator 16.0.0, SVG Export Plug-In . SVG Version: 6.00 Build 0)  -->
<!DOCTYPE svg PUBLIC "-//W3C//DTD SVG 1.1//EN" "http://www.w3.org/Graphics/SVG/1.1/DTD/svg11.dtd">
<svg version="1.1" id="Layer_1" xmlns="http://www.w3.org/2000/svg" xmlns:xlink="http://www.w3.org/1999/xlink" x="0px" y="0px"
	 width="10px" height="10px" viewBox="0 0 10 10" enable-background="new 0 0 10 10" xml:space="preserve">
<path fill="#FFFFFF" d="M40.084-33.305"/>
<g>
	<path fill="#FFFFFF" d="M8.244,0.858H7.562C7.594,0.779,7.6,0.692,7.578,0.605C7.529,0.429,7.369,0.307,7.188,0.307H2.812
		c-0.183,0-0.343,0.123-0.39,0.299C2.399,0.691,2.406,0.779,2.438,0.858H1.755c-0.223,0-0.404,0.181-0.404,0.404V9.29
		c0,0.224,0.181,0.403,0.404,0.403h6.489c0.225,0,0.404-0.18,0.404-0.403V1.262C8.648,1.039,8.467,0.858,8.244,0.858z M2.979,0.955
		l1.743,1.367l-0.824,0.91L2.979,0.955z M5.276,2.322L7.02,0.956L6.1,3.232L5.276,2.322z M2.158,8.887V1.666h0.818l0.753,1.866
		C3.746,3.575,3.785,3.605,3.83,3.614c0.008,0.001,0.016,0.002,0.024,0.002c0.038,0,0.074-0.016,0.1-0.044l0.639-0.705l-0.556,6.02
		H2.158z M7.842,8.887H5.895L5.332,2.784l0.713,0.787C6.07,3.6,6.105,3.616,6.145,3.616c0.008,0,0.016,0,0.023-0.002
		C6.213,3.605,6.252,3.574,6.27,3.531l0.754-1.866H7.84v7.221H7.842z"/>
</g>
</svg>
