<?xml version="1.0" encoding="utf-8"?>
<!-- Generator: Adobe Illustrator 16.0.0, SVG Export Plug-In . SVG Version: 6.00 Build 0)  -->
<!DOCTYPE svg PUBLIC "-//W3C//DTD SVG 1.1//EN" "http://www.w3.org/Graphics/SVG/1.1/DTD/svg11.dtd">
<svg version="1.1" id="Layer_1" xmlns="http://www.w3.org/2000/svg" xmlns:xlink="http://www.w3.org/1999/xlink" x="0px" y="0px"
	 width="10px" height="10px" viewBox="0 0 10 10" enable-background="new 0 0 10 10" xml:space="preserve">
<path fill="#FFFFFF" d="M40.084-33.305"/>
<g>
	<g>
		<path fill="#FFFFFF" d="M7.298,1.802c0.105-0.067,0.187-0.147,0.237-0.239C7.67,1.311,7.631,1.036,7.43,0.746L7.416,0.728
			c-0.203-0.249-0.45-0.372-0.693-0.372c-0.457,0-0.838,0.422-1.207,0.831C5.334,1.388,5.16,1.58,5,1.693
			C4.839,1.58,4.665,1.388,4.483,1.187c-0.369-0.409-0.75-0.831-1.208-0.831c-0.243,0-0.489,0.124-0.693,0.372L2.57,0.746
			c-0.202,0.29-0.241,0.564-0.107,0.816c0.052,0.092,0.133,0.172,0.239,0.239H0.761v1.861H5h4.239V1.802H7.298z M2.688,1.437
			C2.596,1.257,2.67,1.043,2.785,0.89C2.95,0.705,3.111,0.615,3.275,0.615c0.342,0,0.684,0.379,1.016,0.745
			c0.144,0.16,0.284,0.314,0.423,0.437C4.685,1.798,4.654,1.8,4.624,1.803H3.691C3.167,1.796,2.799,1.635,2.688,1.437z M5.478,3.413
			H5H4.521V2.155H5h0.478V3.413z M6.308,1.803H5.375C5.345,1.8,5.314,1.798,5.285,1.796c0.139-0.123,0.278-0.277,0.423-0.437
			c0.331-0.366,0.674-0.745,1.015-0.745c0.166,0,0.326,0.09,0.492,0.275c0.114,0.153,0.188,0.367,0.096,0.546
			C7.2,1.635,6.832,1.796,6.308,1.803z"/>
		<polygon fill="#FFFFFF" points="5.478,9.387 5,9.387 4.521,9.387 4.521,3.939 1.249,3.939 1.249,9.645 5,9.645 8.75,9.645 
			8.75,3.939 5.478,3.939 		"/>
	</g>
</g>
</svg>
