<?xml version="1.0" encoding="utf-8"?>
<!-- Generator: Adobe Illustrator 16.0.0, SVG Export Plug-In . SVG Version: 6.00 Build 0)  -->
<!DOCTYPE svg PUBLIC "-//W3C//DTD SVG 1.1//EN" "http://www.w3.org/Graphics/SVG/1.1/DTD/svg11.dtd">
<svg version="1.1" id="Layer_1" xmlns="http://www.w3.org/2000/svg" xmlns:xlink="http://www.w3.org/1999/xlink" x="0px" y="0px"
	 width="10px" height="10px" viewBox="0 0 10 10" enable-background="new 0 0 10 10" xml:space="preserve">
<path fill="#FFFFFF" d="M40.084-33.305"/>
<g>
	<g>
		<path fill="none" stroke="#FFFFFF" stroke-width="0.25" stroke-miterlimit="10" d="M3.83,0.759
			C3.543,0.774,3.334,1.062,3.387,1.337c0.055,0.293,0.402,0.304,0.51,0.537c0.127,0.272-0.059,0.792-0.422,0.781"/>
		<path fill="none" stroke="#FFFFFF" stroke-width="0.25" stroke-miterlimit="10" d="M4.781,1.137
			C4.572,1.349,4.838,1.455,4.875,1.654c0.036,0.198-0.01,0.367-0.111,0.537c-0.036,0.061-0.13,0.144-0.145,0.214
			c-0.023,0.127,0.104,0.24,0.119,0.367"/>
		<path fill="none" stroke="#FFFFFF" stroke-width="0.25" stroke-miterlimit="10" d="M5.808,0.492
			C5.684,0.479,5.611,0.606,5.627,0.718C5.652,0.889,5.879,0.885,5.89,1.07C5.9,1.244,5.705,1.361,5.688,1.53
			C5.648,1.888,5.965,1.883,5.955,2.255C5.945,2.581,5.694,2.64,5.561,2.898"/>
		<g>
			<path fill="none" stroke="#FFFFFF" stroke-width="0.15" stroke-miterlimit="10" d="M2.611,2.459c0,0-0.092,0.007-0.201-0.005
				C2.297,2.441,2.233,2.347,2.267,2.268c0.034-0.079,0.122-0.063,0.226-0.019S2.611,2.459,2.611,2.459z"/>
			<path fill="none" stroke="#FFFFFF" stroke-width="0.15" stroke-miterlimit="10" d="M2.641,2.457c0,0,0.097,0.016,0.207-0.031
				c0.129-0.055,0.199-0.128,0.15-0.193c-0.03-0.041-0.123-0.075-0.229,0.004C2.672,2.309,2.641,2.457,2.641,2.457z"/>
		</g>
	</g>
	<path fill="#FFFFFF" d="M7.913,4.347l-1.3-1.01l0,0H5.759C5.733,3.853,5.308,4.263,4.786,4.263S3.84,3.853,3.813,3.337H2.888v0.002
		L1.591,4.347l0.93,1.198l0.367-0.287v3.909h3.726V5.256l0.371,0.289L7.913,4.347z"/>
</g>
</svg>
