<?xml version="1.0" encoding="utf-8"?>
<!-- Generator: Adobe Illustrator 16.0.0, SVG Export Plug-In . SVG Version: 6.00 Build 0)  -->
<!DOCTYPE svg PUBLIC "-//W3C//DTD SVG 1.1//EN" "http://www.w3.org/Graphics/SVG/1.1/DTD/svg11.dtd">
<svg version="1.1" id="Layer_1" xmlns="http://www.w3.org/2000/svg" xmlns:xlink="http://www.w3.org/1999/xlink" x="0px" y="0px"
	 width="10px" height="10px" viewBox="0 0 10 10" enable-background="new 0 0 10 10" xml:space="preserve">
<path fill="#FFFFFF" d="M40.084-33.305"/>
<g>
	<path fill="#FFFFFF" d="M9.536,5.697V2.372C9.536,2.167,9.401,2,9.234,2H0.301C0.135,2,0,2.167,0,2.372v3.326
		c0,0.142,0.067,0.273,0.171,0.334l3.255,1.913l0.004,0.005c0.362,0.432,0.837,0.669,1.337,0.669c0.501,0,0.977-0.237,1.338-0.669
		l0.004-0.005l0.004-0.003l3.251-1.91C9.469,5.971,9.536,5.839,9.536,5.697z M0.603,5.463V4.129h2.242v2.123
		c0,0.161,0.014,0.322,0.04,0.479l0.013,0.08L0.603,5.463z M6.088,6.252c0,0.896-0.592,1.625-1.32,1.625
		c-0.728,0-1.32-0.729-1.32-1.625V4.129h2.64V6.252L6.088,6.252z M8.933,5.463L6.638,6.812l0.014-0.079
		c0.026-0.158,0.04-0.32,0.04-0.48V4.129h2.241V5.463L8.933,5.463z M8.933,3.387h-8.33V2.742h8.33V3.387L8.933,3.387z"/>
</g>
</svg>
