<?xml version="1.0" encoding="utf-8"?>
<!-- Generator: Adobe Illustrator 16.0.0, SVG Export Plug-In . SVG Version: 6.00 Build 0)  -->
<!DOCTYPE svg PUBLIC "-//W3C//DTD SVG 1.1//EN" "http://www.w3.org/Graphics/SVG/1.1/DTD/svg11.dtd">
<svg version="1.1" id="Layer_1" xmlns="http://www.w3.org/2000/svg" xmlns:xlink="http://www.w3.org/1999/xlink" x="0px" y="0px"
	 width="10px" height="10px" viewBox="0 0 10 10" enable-background="new 0 0 10 10" xml:space="preserve">
<path fill="#FFFFFF" d="M40.084-33.305"/>
<g>
	<path fill="#FFFFFF" d="M8.624,3.023c0-0.239-0.193-0.433-0.432-0.433H7.759v0.937h0.434c0.238,0,0.432-0.193,0.432-0.432V3.023z"
		/>
	<path fill="#FFFFFF" d="M8.624,4.128c0-0.239-0.193-0.433-0.432-0.433H7.759v0.937h0.434c0.238,0,0.432-0.194,0.432-0.432V4.128z"
		/>
	<path fill="#FFFFFF" d="M8.624,5.306V5.233c0-0.238-0.193-0.432-0.432-0.432H7.759v0.937h0.434
		C8.431,5.738,8.624,5.545,8.624,5.306z"/>
	<path fill="#FFFFFF" d="M8.849,1.393v-0.06c0-0.239-0.186-0.378-0.414-0.31L7.759,1.101v0.997L8.44,1.969
		C8.667,1.89,8.849,1.632,8.849,1.393z"/>
	<path fill="#FFFFFF" d="M6.271,6.637h0.906c0.236,0,0.428-0.191,0.428-0.428V0.711c0-0.237-0.191-0.429-0.428-0.429H4.293
		c-0.236,0-0.428,0.192-0.428,0.429v1.446v1.8h0.579v-2.85c0-0.065,0.053-0.118,0.117-0.118h2.346c0.066,0,0.119,0.053,0.119,0.118
		V5.34c0,0.065-0.053,0.117-0.119,0.117H4.81v0.734C4.794,6.244,4.778,6.287,4.778,6.287h0.75c-0.043-0.049-0.07-0.111-0.07-0.182
		c0-0.148,0.121-0.27,0.27-0.27s0.27,0.121,0.27,0.27c0,0.07-0.027,0.133-0.072,0.182h0.42L6.306,6.492
		C6.304,6.5,6.294,6.555,6.271,6.637z"/>
	<path fill="#FFFFFF" d="M4.462,8.23c0.252-0.125,0.604-0.273,0.912-0.496c0.469-0.336,0.637-1.201,0.637-1.201H4.763
		c-0.26,0.596-0.795,1.098-0.822,1.123C3.908,7.688,3.866,7.703,3.824,7.703c-0.046,0-0.091-0.02-0.125-0.057
		C3.634,7.578,3.638,7.469,3.708,7.404C3.713,7.398,4.34,6.811,4.515,6.217V5.27h1.453c0.318,0,0.578-0.24,0.578-0.537
		c0-0.296-0.26-0.536-0.578-0.536H3.59V2.521L2.651,3.153C2.378,3.317,2.063,3.69,1.946,3.986L0.429,8.092
		C0.364,8.27,0.464,8.414,0.654,8.414H3.83C4.019,8.414,4.292,8.316,4.462,8.23z"/>
</g>
</svg>
