<?xml version="1.0" encoding="utf-8"?>
<!-- Generator: Adobe Illustrator 16.0.0, SVG Export Plug-In . SVG Version: 6.00 Build 0)  -->
<!DOCTYPE svg PUBLIC "-//W3C//DTD SVG 1.1//EN" "http://www.w3.org/Graphics/SVG/1.1/DTD/svg11.dtd">
<svg version="1.1" id="Layer_1" xmlns="http://www.w3.org/2000/svg" xmlns:xlink="http://www.w3.org/1999/xlink" x="0px" y="0px"
	 width="10px" height="10px" viewBox="0 0 10 10" enable-background="new 0 0 10 10" xml:space="preserve">
<path fill="#FFFFFF" d="M40.084-33.305"/>
<g>
	<g>
		<circle fill="#FFFFFF" cx="2.612" cy="1.29" r="0.988"/>
		<path fill="#FFFFFF" d="M3.738,4.522H2.001c-0.054,0-0.098-0.044-0.098-0.098V3.674c0-0.018,0.007-0.035,0.02-0.049
			c0.014-0.013,0.031-0.02,0.05-0.02c0.003,0,0.006,0,0.01,0c0.039,0,0.071,0.032,0.071,0.071v0.649c0,0.025,0.02,0.045,0.045,0.045
			h0.195V3.322c0-0.162,0.132-0.294,0.294-0.294H4.19v-0.09c0-0.25-0.202-0.452-0.452-0.452c-0.106,0-2.158,0-2.287,0
			C1.202,2.486,1,2.688,1,2.938v2.035c0,0.25,0.202,0.451,0.451,0.451h2.287c0.25,0,0.452-0.202,0.452-0.451
			C4.189,4.725,3.988,4.522,3.738,4.522z"/>
		<path fill="#FFFFFF" d="M4.936,3.179H4.162c-0.065,0-0.119,0.053-0.119,0.119v0.539c0,0.065-0.053,0.118-0.118,0.118H3.633
			c-0.065,0-0.118-0.053-0.118-0.118V3.298c0-0.066-0.053-0.119-0.118-0.119H2.622c-0.099,0-0.178,0.08-0.178,0.179v1.014h1.294
			c0.332,0,0.602,0.271,0.602,0.603c0,0.181-0.081,0.342-0.208,0.451h0.804c0.099,0,0.179-0.079,0.179-0.178v-1.89
			C5.114,3.259,5.034,3.179,4.936,3.179z"/>
		<path fill="#FFFFFF" d="M1.595,8.432c0,0.332,0.27,0.602,0.603,0.602c0.176,0,0.333-0.077,0.443-0.198
			c0.11,0.121,0.268,0.198,0.444,0.198c0.332,0,0.602-0.27,0.602-0.602V5.576H1.595V8.432z"/>
		<path fill="#FFFFFF" d="M8.425,2.414H7.344H6.262c-0.249,0-0.451,0.202-0.451,0.452v3.083c0,0.249,0.202,0.451,0.451,0.451
			c0.018,0,0.035-0.003,0.052-0.005v1.964c0,0.332,0.271,0.602,0.603,0.602c0.167,0,0.315-0.07,0.425-0.181h0.006
			c0.108,0.11,0.257,0.181,0.424,0.181c0.332,0,0.603-0.27,0.603-0.602V6.396C8.39,6.397,8.406,6.4,8.425,6.4
			c0.25,0,0.451-0.202,0.451-0.451V2.865C8.877,2.616,8.675,2.414,8.425,2.414z"/>
		<circle fill="#FFFFFF" cx="7.344" cy="1.211" r="0.988"/>
	</g>
</g>
</svg>
