<?xml version="1.0" encoding="utf-8"?>
<!-- Generator: Adobe Illustrator 16.0.0, SVG Export Plug-In . SVG Version: 6.00 Build 0)  -->
<!DOCTYPE svg PUBLIC "-//W3C//DTD SVG 1.1//EN" "http://www.w3.org/Graphics/SVG/1.1/DTD/svg11.dtd">
<svg version="1.1" id="Layer_1" xmlns="http://www.w3.org/2000/svg" xmlns:xlink="http://www.w3.org/1999/xlink" x="0px" y="0px"
	 width="10px" height="10px" viewBox="0 0 10 10" enable-background="new 0 0 10 10" xml:space="preserve">
<g>
	<g>
		<path fill="#FFFFFF" d="M9.319,7.897c-0.002,0-0.007,0-0.012,0H0.679c-0.135,0-0.255-0.088-0.295-0.219
			c-0.039-0.129,0.01-0.27,0.123-0.346l4.314-2.901c0.104-0.069,0.239-0.069,0.345,0l4.269,2.871
			c0.113,0.045,0.193,0.156,0.193,0.286C9.628,7.76,9.49,7.897,9.319,7.897z M1.69,7.28h6.608L4.994,5.059L1.69,7.28z"/>
	</g>
	<g>
		<path fill="#FFFFFF" d="M4.994,4.671c-0.169,0-0.308-0.139-0.308-0.309V3.977c0-0.171,0.138-0.308,0.308-0.308
			c0.387,0,0.7-0.314,0.7-0.702c0-0.386-0.313-0.701-0.7-0.701c-0.386,0-0.702,0.315-0.702,0.701c0,0.171-0.138,0.308-0.308,0.308
			S3.676,3.138,3.676,2.967c0-0.727,0.592-1.317,1.318-1.317c0.727,0,1.316,0.591,1.316,1.317c0,0.62-0.43,1.143-1.008,1.282v0.113
			C5.303,4.532,5.165,4.671,4.994,4.671z"/>
	</g>
</g>
</svg>
