<?xml version="1.0" encoding="utf-8"?>
<!-- Generator: Adobe Illustrator 16.0.0, SVG Export Plug-In . SVG Version: 6.00 Build 0)  -->
<!DOCTYPE svg PUBLIC "-//W3C//DTD SVG 1.1//EN" "http://www.w3.org/Graphics/SVG/1.1/DTD/svg11.dtd">
<svg version="1.1" id="Layer_1" xmlns="http://www.w3.org/2000/svg" xmlns:xlink="http://www.w3.org/1999/xlink" x="0px" y="0px"
	 width="10px" height="10px" viewBox="0 0 10 10" enable-background="new 0 0 10 10" xml:space="preserve">
<g>
	<g>
		<g>
			<path fill="#FFFFFF" d="M6.758,6.969c-0.139,0-0.252-0.109-0.252-0.246V3.922c0-0.094,0.055-0.18,0.143-0.221
				c0.086-0.042,0.189-0.03,0.266,0.029L7.47,4.162l0.688-0.674C7.424,2.803,7.069,2.472,6.9,2.294
				c-0.294-0.007-0.603-0.01-0.79-0.01C6,2.785,5.544,3.162,5,3.162S4,2.785,3.89,2.284c-0.192,0-0.506,0.003-0.806,0.01
				C2.905,2.49,2.542,2.831,1.841,3.488l0.689,0.674l0.556-0.433c0.076-0.059,0.179-0.07,0.266-0.029
				c0.087,0.041,0.142,0.127,0.142,0.221v2.801c0,0.137-0.113,0.246-0.251,0.246c-0.139,0-0.251-0.109-0.251-0.246V4.432
				L2.668,4.684c-0.1,0.078-0.243,0.07-0.334-0.019l-1.03-1.007C1.256,3.611,1.229,3.547,1.23,3.481
				c0.001-0.066,0.029-0.13,0.078-0.175C1.831,2.817,2.68,2.018,2.787,1.904c0.046-0.061,0.118-0.098,0.196-0.1
				c1.203-0.03,1.218-0.017,1.308,0.069c0.049,0.046,0.077,0.11,0.077,0.177c0,0.342,0.284,0.62,0.633,0.62s0.633-0.278,0.633-0.62
				c0-0.066,0.027-0.131,0.076-0.177c0.09-0.085,0.104-0.099,1.297-0.068c0.068,0.001,0.132,0.03,0.178,0.08
				c0.005,0.004,0.009,0.009,0.013,0.014C7.297,2.002,8.16,2.81,8.691,3.306C8.741,3.351,8.77,3.415,8.77,3.481
				c0.002,0.066-0.025,0.13-0.073,0.177l-1.03,1.007c-0.09,0.089-0.233,0.097-0.334,0.019L7.009,4.432v2.291
				C7.009,6.859,6.896,6.969,6.758,6.969z"/>
		</g>
	</g>
	<g>
		<path fill="#FFFFFF" d="M6.674,7.996c-0.537,0-0.811-0.322-1.031-0.58c-0.22-0.258-0.358-0.404-0.646-0.404
			c-0.287,0-0.425,0.146-0.644,0.404c-0.22,0.258-0.494,0.58-1.03,0.58s-0.81-0.322-1.029-0.58S1.937,7.012,1.65,7.012
			c-0.139,0-0.251-0.109-0.251-0.246S1.511,6.52,1.65,6.52c0.536,0,0.81,0.322,1.03,0.58c0.219,0.258,0.357,0.404,0.643,0.404
			c0.287,0,0.424-0.146,0.644-0.404s0.494-0.58,1.03-0.58c0.537,0,0.812,0.322,1.031,0.58s0.358,0.404,0.646,0.404
			S7.1,7.357,7.319,7.1s0.495-0.58,1.031-0.58c0.139,0,0.251,0.109,0.251,0.246S8.489,7.012,8.351,7.012
			c-0.288,0-0.426,0.146-0.646,0.404C7.484,7.674,7.211,7.996,6.674,7.996z"/>
	</g>
</g>
</svg>
