<?xml version="1.0" encoding="utf-8"?>
<!-- Generator: Adobe Illustrator 16.0.0, SVG Export Plug-In . SVG Version: 6.00 Build 0)  -->
<!DOCTYPE svg PUBLIC "-//W3C//DTD SVG 1.1//EN" "http://www.w3.org/Graphics/SVG/1.1/DTD/svg11.dtd">
<svg version="1.1" id="Layer_1" xmlns="http://www.w3.org/2000/svg" xmlns:xlink="http://www.w3.org/1999/xlink" x="0px" y="0px"
	 width="10px" height="10px" viewBox="0 0 10 10" enable-background="new 0 0 10 10" xml:space="preserve">
<g>
	<path fill="#FFFFFF" d="M7.787,8.674H2.211c-0.402,0-0.667-0.079-0.811-0.242C1.319,8.338,1.3,8.243,1.297,8.184
		C1.276,8.038,1.195,7.278,1.738,6.971c0.334-0.189,1.301-0.724,1.772-0.984c-0.034-0.04-0.074-0.088-0.122-0.145
		C2.804,5.144,2.804,4.521,2.805,3.489V3.376c0-1.39,1.285-2.019,1.973-2.047c0.111-0.005,0.333-0.005,0.444,0
		C5.84,1.358,7.193,1.915,7.193,3.376v0.113C7.195,4.521,7.195,5.144,6.61,5.842C6.562,5.897,6.522,5.946,6.488,5.986
		C6.96,6.247,7.928,6.781,8.261,6.971c0.543,0.308,0.462,1.067,0.442,1.213C8.699,8.243,8.68,8.338,8.598,8.432
		C8.455,8.595,8.189,8.674,7.787,8.674z M1.788,8.113c0.036,0.021,0.147,0.065,0.423,0.065h5.576c0.277,0,0.388-0.045,0.424-0.065
		c0.01-0.067,0.067-0.563-0.195-0.711C7.57,7.147,5.984,6.275,5.984,6.275C5.918,6.239,5.871,6.174,5.859,6.098
		C5.848,6.023,5.87,5.946,5.922,5.89c0,0,0.037-0.043,0.309-0.366c0.469-0.56,0.469-1.022,0.468-2.034V3.376
		c0-1.129-1.1-1.533-1.5-1.552c-0.101-0.005-0.299-0.004-0.399,0c-0.4,0.016-1.499,0.414-1.499,1.552v0.113
		c0,1.012,0,1.474,0.469,2.034C4.04,5.847,4.077,5.89,4.082,5.896c0.049,0.056,0.069,0.132,0.057,0.205
		C4.125,6.176,4.08,6.24,4.015,6.275c0,0-1.585,0.872-2.031,1.127C1.721,7.55,1.779,8.05,1.788,8.113z"/>
</g>
</svg>
