<?xml version="1.0" encoding="utf-8"?>
<!-- Generator: Adobe Illustrator 16.0.0, SVG Export Plug-In . SVG Version: 6.00 Build 0)  -->
<!DOCTYPE svg PUBLIC "-//W3C//DTD SVG 1.1//EN" "http://www.w3.org/Graphics/SVG/1.1/DTD/svg11.dtd">
<svg version="1.1" id="Layer_1" xmlns="http://www.w3.org/2000/svg" xmlns:xlink="http://www.w3.org/1999/xlink" x="0px" y="0px"
	 width="10px" height="10px" viewBox="0 0 10 10" enable-background="new 0 0 10 10" xml:space="preserve">
<path fill="#FFFFFF" d="M40.084-33.305"/>
<g>
	<g>
		<g>
			<path fill="#FFFFFF" d="M7.68,6.65H7.6c0.19-0.105,0.362-0.203,0.461-0.263c0.365-0.225,0.365-0.507,0.365-0.822
				c0-0.408-0.313-0.743-0.712-0.781c0.178-0.1,0.337-0.19,0.431-0.247c0.367-0.226,0.367-0.508,0.367-0.822
				c0-0.435-0.356-0.789-0.792-0.789H2.986c-0.382,0-1.909,0.721-2.12,1.211L0.864,4.145C0.799,4.258,0.76,4.389,0.76,4.528
				c0,0.436,0.354,0.791,0.79,0.791h0.013C1.192,5.535,0.87,5.782,0.782,5.988L0.78,5.995C0.715,6.108,0.675,6.239,0.675,6.379
				c0,0.436,0.354,0.79,0.79,0.79h0.181c-0.387,0.223-0.729,0.48-0.821,0.693L0.823,7.869C0.758,7.982,0.718,8.113,0.718,8.252
				c0,0.437,0.354,0.791,0.791,0.791h0.839h3.976h0.32l0.063-0.015C6.751,9.005,7.796,8.45,8.103,8.262
				c0.365-0.225,0.365-0.508,0.365-0.823C8.468,7.005,8.113,6.65,7.68,6.65z M7.72,3.196c0.285,0,0.518,0.233,0.518,0.533
				c0,0.288,0,0.433-0.235,0.579C7.845,4.404,7.477,4.605,7.158,4.775H7.11c0.026-0.076,0.045-0.159,0.045-0.247
				c0-0.434-0.354-0.79-0.79-0.79H1.727c0.469-0.281,1.062-0.542,1.26-0.542H7.72L7.72,3.196z M2.568,5.319h3.797h0.319l0.063-0.017
				c0.02-0.009,0.227-0.119,0.479-0.255h0.407c0.288,0,0.521,0.233,0.521,0.532c0,0.287,0,0.434-0.238,0.578
				C7.753,6.26,7.357,6.474,7.031,6.65H7.02C7.05,6.564,7.07,6.475,7.07,6.379c0-0.435-0.354-0.79-0.79-0.79H1.641
				C1.802,5.493,1.975,5.4,2.144,5.319H2.568L2.568,5.319z M7.961,8.031C7.795,8.134,7.388,8.354,7.06,8.532
				c0.033-0.088,0.053-0.182,0.053-0.278c0-0.437-0.354-0.791-0.789-0.791H1.684C1.86,7.358,2.051,7.256,2.235,7.169h0.248H6.28H6.6
				l0.062-0.016c0.02-0.011,0.204-0.107,0.436-0.231h0.581c0.286,0,0.518,0.231,0.518,0.533C8.198,7.741,8.198,7.886,7.961,8.031z"
				/>
		</g>
	</g>
	<path fill="#FFFFFF" d="M7.422,2.328C7.075,2.61,6.666,2.624,6.666,2.624c0.392,0,0.659,0.138,0.842,0.327
		C7.58,3.027,7.641,3.11,7.687,3.198C7.725,3.267,7.756,3.339,7.783,3.41C7.9,3.729,7.9,4.034,7.9,4.072
		c0-0.033,0.01-0.274,0.096-0.551C8.014,3.465,8.035,3.408,8.061,3.35c0.001-0.003,0.003-0.006,0.004-0.011
		c0.023-0.05,0.048-0.103,0.077-0.152C8.195,3.095,8.26,3.009,8.338,2.931C8.374,2.896,8.413,2.862,8.456,2.83
		C8.496,2.8,8.54,2.772,8.588,2.747c0.147-0.075,0.327-0.123,0.545-0.123c-0.001,0-0.001,0-0.001,0C7.916,2.624,7.9,1.171,7.9,1.171
		c0,0.391-0.095,0.677-0.232,0.885C7.634,2.106,7.6,2.154,7.562,2.196C7.517,2.245,7.471,2.29,7.422,2.328z"/>
	<path fill="#FFFFFF" d="M8.217,3.895c-0.214,0.17-0.466,0.178-0.466,0.178c0.241,0.002,0.406,0.084,0.518,0.198
		c0.045,0.046,0.082,0.097,0.11,0.149c0.024,0.042,0.044,0.084,0.061,0.127C8.512,4.74,8.512,4.923,8.512,4.945
		c0-0.02,0.005-0.166,0.059-0.331c0.012-0.034,0.024-0.069,0.039-0.103c0-0.003,0.003-0.005,0.003-0.006
		c0.014-0.031,0.03-0.063,0.046-0.092c0.034-0.055,0.074-0.107,0.123-0.155c0.021-0.021,0.046-0.042,0.071-0.06
		c0.025-0.018,0.053-0.035,0.083-0.05c0.09-0.046,0.2-0.074,0.334-0.076l0,0c-0.749,0-0.758-0.875-0.758-0.875
		c0,0.236-0.059,0.408-0.145,0.534C8.347,3.763,8.326,3.79,8.303,3.814C8.275,3.845,8.247,3.871,8.217,3.895z"/>
</g>
</svg>
