<?xml version="1.0" encoding="utf-8"?>
<!-- Generator: Adobe Illustrator 16.0.0, SVG Export Plug-In . SVG Version: 6.00 Build 0)  -->
<!DOCTYPE svg PUBLIC "-//W3C//DTD SVG 1.1//EN" "http://www.w3.org/Graphics/SVG/1.1/DTD/svg11.dtd">
<svg version="1.1" id="Layer_1" xmlns="http://www.w3.org/2000/svg" xmlns:xlink="http://www.w3.org/1999/xlink" x="0px" y="0px"
	 width="10px" height="10px" viewBox="0 0 10 10" enable-background="new 0 0 10 10" xml:space="preserve">
<g>
	<path fill="#FFFFFF" d="M6.125,4.396c-0.01-0.08-0.041-0.152-0.088-0.213l0.32-1.993C6.371,2.116,6.322,2.046,6.25,2.029l-0.004,0
		C6.174,2.011,6.1,2.054,6.078,2.125L5.493,4.057C5.348,4.129,5.249,4.277,5.249,4.449c0,0.242,0.198,0.44,0.441,0.44
		c0.045,0,0.088-0.009,0.129-0.021l1.223,0.636C7.107,5.538,7.189,5.516,7.23,5.453l0.002-0.004C7.273,5.387,7.26,5.301,7.201,5.254
		L6.125,4.396z M5.472,4.449c0-0.12,0.098-0.218,0.217-0.218s0.217,0.098,0.217,0.218c0,0.119-0.098,0.217-0.217,0.217
		S5.472,4.568,5.472,4.449z M9.006,4.449c0,1.475-0.969,2.727-2.303,3.156V7.134c1.084-0.411,1.855-1.459,1.855-2.685
		c0-1.583-1.287-2.871-2.869-2.871c-1.583,0-2.871,1.288-2.871,2.871c0,0.158,0.013,0.314,0.038,0.466H2.406
		C2.385,4.764,2.373,4.607,2.373,4.449c0-1.829,1.487-3.316,3.316-3.316C7.518,1.133,9.006,2.621,9.006,4.449z M6.268,6.812
		L5.246,5.803C5.181,5.737,5.093,5.702,5.003,5.702H4.488V5.51c0-0.145-0.117-0.26-0.26-0.26H1.254c-0.144,0-0.26,0.115-0.26,0.26
		v1.738h5.375V7.059C6.369,6.966,6.332,6.877,6.268,6.812z M5.822,6.846H4.833c-0.021,0-0.039-0.018-0.039-0.041V6.041
		c0-0.021,0.018-0.039,0.039-0.039h0.189c0.01,0,0.021,0.004,0.028,0.012l0.8,0.763C5.877,6.801,5.859,6.846,5.822,6.846z
		 M6.369,7.392v0.574c0,0.144-0.115,0.26-0.26,0.26H5.832C5.781,7.881,5.484,7.616,5.126,7.616S4.471,7.881,4.421,8.226H3.012
		c-0.05-0.345-0.347-0.609-0.705-0.609c-0.358,0-0.655,0.265-0.705,0.609H1.254c-0.143,0-0.26-0.116-0.26-0.26V7.392H6.369z
		 M5.126,7.791c-0.297,0-0.539,0.24-0.539,0.538c0,0.297,0.242,0.538,0.539,0.538c0.299,0,0.54-0.241,0.54-0.538
		C5.666,8.031,5.425,7.791,5.126,7.791z M5.126,8.598c-0.148,0-0.27-0.119-0.27-0.269s0.121-0.27,0.27-0.27s0.27,0.12,0.27,0.27
		S5.275,8.598,5.126,8.598z M2.308,7.791c-0.297,0-0.54,0.24-0.54,0.538c0,0.297,0.242,0.538,0.54,0.538s0.538-0.241,0.538-0.538
		C2.846,8.031,2.605,7.791,2.308,7.791z M2.308,8.598c-0.149,0-0.27-0.119-0.27-0.269s0.12-0.27,0.27-0.27
		c0.148,0,0.27,0.12,0.27,0.27S2.456,8.598,2.308,8.598z"/>
</g>
</svg>
