<?xml version="1.0" encoding="utf-8"?>
<!-- Generator: Adobe Illustrator 16.0.0, SVG Export Plug-In . SVG Version: 6.00 Build 0)  -->
<!DOCTYPE svg PUBLIC "-//W3C//DTD SVG 1.1//EN" "http://www.w3.org/Graphics/SVG/1.1/DTD/svg11.dtd">
<svg version="1.1" id="Layer_1" xmlns="http://www.w3.org/2000/svg" xmlns:xlink="http://www.w3.org/1999/xlink" x="0px" y="0px"
	 width="10px" height="10px" viewBox="0 0 10 10" enable-background="new 0 0 10 10" xml:space="preserve">
<path fill="#FFFFFF" d="M40.084-33.305"/>
<g>
	<path fill="#FFFFFF" d="M3.618,6.074c0-0.853,1.104-0.989,1.104-1.458c0-0.206-0.16-0.33-0.359-0.33
		c-0.276,0-0.426,0.28-0.426,0.28L3.618,4.353c0,0,0.216-0.472,0.782-0.472c0.417,0,0.77,0.253,0.77,0.699
		c0,0.758-1.059,0.889-1.069,1.335h1.105v0.369H3.638C3.627,6.208,3.618,6.141,3.618,6.074z M5.446,5.412l1.02-1.491h0.509v1.397
		H7.28v0.356H6.975v0.609H6.551V5.675H5.446V5.412L5.446,5.412z M6.551,5.318V4.587c0-0.117,0.018-0.247,0.018-0.247H6.562
		c0,0-0.054,0.126-0.118,0.216L5.898,5.312v0.006H6.551L6.551,5.318z M8.636,5.194L8.553,5.488C8.085,7.163,6.381,8.22,4.692,7.802
		C3.072,7.398,2.064,5.827,2.307,4.228l0.489,0.136c0.113,0.032,0.218-0.071,0.188-0.185L2.453,2.111
		C2.423,1.997,2.282,1.958,2.198,2.04L0.672,3.533C0.588,3.616,0.625,3.758,0.738,3.79L1.27,3.938
		c-0.397,2.164,0.938,4.32,3.117,4.889c2.264,0.589,4.57-0.812,5.198-3.063l0.08-0.282C9.688,5.4,9.64,5.315,9.559,5.292
		L8.824,5.087C8.743,5.064,8.658,5.112,8.636,5.194z M9.504,3.905l-0.771,0.1C8.649,4.016,8.591,4.092,8.602,4.176l0.03,0.234
		C8.643,4.493,8.72,4.552,8.804,4.542l0.771-0.1C9.658,4.431,9.717,4.354,9.705,4.27L9.676,4.036
		C9.664,3.953,9.587,3.894,9.504,3.905z M8.911,2.447L8.232,2.83C8.159,2.871,8.134,2.964,8.175,3.038l0.116,0.205
		c0.041,0.073,0.135,0.099,0.208,0.058l0.678-0.382C9.25,2.878,9.275,2.785,9.234,2.711L9.118,2.506
		C9.077,2.432,8.984,2.406,8.911,2.447z M7.815,1.319L7.329,1.927C7.276,1.993,7.287,2.088,7.353,2.141l0.186,0.147
		C7.604,2.341,7.7,2.33,7.753,2.264l0.484-0.607C8.29,1.591,8.278,1.495,8.213,1.442L8.03,1.295
		C7.964,1.242,7.867,1.253,7.815,1.319z M6.375,0.683L6.153,1.428c-0.024,0.081,0.022,0.166,0.103,0.19l0.227,0.068
		C6.562,1.71,6.648,1.664,6.672,1.583l0.223-0.745c0.024-0.081-0.023-0.166-0.104-0.189L6.565,0.581
		C6.484,0.557,6.399,0.602,6.375,0.683z M4.803,0.633l0.073,0.774c0.008,0.083,0.083,0.146,0.166,0.137l0.235-0.022
		C5.361,1.515,5.423,1.44,5.414,1.356L5.342,0.582C5.333,0.498,5.26,0.437,5.175,0.444L4.94,0.466
		C4.856,0.475,4.795,0.548,4.803,0.633z M3.326,1.175l0.357,0.69C3.722,1.941,3.814,1.969,3.89,1.931l0.209-0.109
		c0.075-0.039,0.104-0.13,0.065-0.205l-0.357-0.69C3.768,0.851,3.675,0.822,3.601,0.861L3.391,0.969
		C3.316,1.008,3.287,1.101,3.326,1.175z"/>
</g>
</svg>
