<?xml version="1.0" encoding="utf-8"?>
<!-- Generator: Adobe Illustrator 16.0.0, SVG Export Plug-In . SVG Version: 6.00 Build 0)  -->
<!DOCTYPE svg PUBLIC "-//W3C//DTD SVG 1.1//EN" "http://www.w3.org/Graphics/SVG/1.1/DTD/svg11.dtd">
<svg version="1.1" id="Layer_1" xmlns="http://www.w3.org/2000/svg" xmlns:xlink="http://www.w3.org/1999/xlink" x="0px" y="0px"
	 width="10px" height="10px" viewBox="0 0 10 10" enable-background="new 0 0 10 10" xml:space="preserve">
<path fill="#FFFFFF" d="M40.084-33.305"/>
<g>
	<path fill="#FFFFFF" d="M6.594,2.88H6.559c0.013,0.022,0.02,0.047,0.02,0.074c0,0.026-0.008,0.048-0.014,0.063L6.471,3.249
		l0.12,0.297L6.857,2.88H6.594L6.594,2.88z"/>
	<path fill="#FFFFFF" d="M6.502,2.954c0-0.04-0.033-0.072-0.072-0.072S6.357,2.914,6.357,2.954c0,0.012,0.004,0.022,0.01,0.034
		L6.43,3.146l0.062-0.158C6.496,2.979,6.502,2.966,6.502,2.954z"/>
	<path fill="#FFFFFF" d="M6.281,2.954c0-0.027,0.007-0.052,0.019-0.074H6.001l0.268,0.667l0.119-0.297L6.295,3.016
		C6.288,2.999,6.281,2.978,6.281,2.954z"/>
	<path fill="#FFFFFF" d="M8.021,3.695c-0.189-1.11-1.31-1.977-2.718-2.089L5.19,1.513C5.2,1.496,5.208,1.478,5.216,1.458
		c0.022-0.062,0.08-0.11,0.146-0.164l0.03-0.024c0.147-0.123,0.217-0.292,0.217-0.519C5.605,0.444,5.417,0.253,5.107,0.24l-0.022,0
		c-0.134,0-0.254,0.034-0.359,0.101C4.64,0.394,4.617,0.526,4.648,0.615l0.191,0.211l0.035-0.048
		c0.059-0.083,0.156-0.134,0.257-0.134c0.078,0,0.139,0.053,0.139,0.122c0,0.104-0.105,0.203-0.197,0.291
		C5.009,1.118,4.95,1.173,4.919,1.233C4.885,1.298,4.868,1.372,4.864,1.466l-0.169,0.14C3.287,1.72,2.167,2.585,1.979,3.695H1.938
		v5.322h6.125V3.695H8.021z M6.626,3.665c-0.005,0.014-0.02,0.023-0.035,0.023c-0.017,0-0.03-0.009-0.036-0.023L6.43,3.353
		L6.305,3.665C6.299,3.679,6.284,3.688,6.269,3.688s-0.03-0.009-0.036-0.023L5.908,2.856C5.904,2.844,5.905,2.83,5.912,2.82
		c0.008-0.011,0.02-0.018,0.032-0.018h0.321l0,0h0.649c0.013,0,0.024,0.006,0.032,0.018c0.007,0.01,0.008,0.023,0.004,0.036
		L6.626,3.665z"/>
</g>
</svg>
