<?xml version="1.0" encoding="utf-8"?>
<!-- Generator: Adobe Illustrator 16.0.0, SVG Export Plug-In . SVG Version: 6.00 Build 0)  -->
<!DOCTYPE svg PUBLIC "-//W3C//DTD SVG 1.1//EN" "http://www.w3.org/Graphics/SVG/1.1/DTD/svg11.dtd">
<svg version="1.1" id="Layer_1" xmlns="http://www.w3.org/2000/svg" xmlns:xlink="http://www.w3.org/1999/xlink" x="0px" y="0px"
	 width="10px" height="10px" viewBox="0 0 10 10" enable-background="new 0 0 10 10" xml:space="preserve">
<path fill="#FFFFFF" d="M40.084-33.305"/>
<g>
	<g>
		<path fill="#FFFFFF" d="M3.908,3.21c-0.159,0-0.324,0.044-0.477,0.104C3.56,3.212,3.681,3.091,3.76,2.953
			C4.022,2.5,3.966,2.173,3.739,2.042c-0.227-0.13-0.539-0.016-0.8,0.438c-0.08,0.138-0.124,0.303-0.148,0.466
			C2.768,2.782,2.723,2.617,2.644,2.479c-0.262-0.453-0.574-0.568-0.8-0.438C1.616,2.173,1.561,2.5,1.823,2.953
			c0.079,0.138,0.2,0.259,0.33,0.361C1.999,3.254,1.833,3.21,1.674,3.21c-0.524,0-0.779,0.211-0.779,0.474
			c0,0.262,0.255,0.474,0.779,0.474c0.159,0,0.324-0.043,0.478-0.104c-0.13,0.102-0.25,0.224-0.33,0.361
			C1.561,4.867,1.617,5.195,1.844,5.326c0.226,0.131,0.538,0.016,0.8-0.438c0.08-0.139,0.124-0.303,0.147-0.466
			C2.815,4.585,2.86,4.75,2.939,4.889c0.261,0.453,0.573,0.568,0.8,0.438C3.966,5.195,4.022,4.867,3.76,4.414
			c-0.079-0.138-0.2-0.259-0.329-0.361c0.153,0.061,0.318,0.105,0.477,0.104c0.524,0,0.779-0.211,0.779-0.473S4.432,3.21,3.908,3.21
			z M2.981,4.012C2.799,4.117,2.568,4.055,2.463,3.874C2.358,3.692,2.421,3.46,2.602,3.356C2.783,3.25,3.015,3.313,3.12,3.494
			S3.163,3.908,2.981,4.012z"/>
		<path fill="#FFFFFF" d="M8.243,6.4C8.038,6.346,7.809,6.345,7.589,6.371C7.792,6.283,7.99,6.168,8.142,6.017
			c0.496-0.496,0.537-0.939,0.289-1.188c-0.249-0.248-0.691-0.207-1.188,0.29C7.093,5.27,6.978,5.467,6.89,5.67
			C6.915,5.451,6.915,5.222,6.86,5.016C6.679,4.338,6.314,4.081,5.976,4.172S5.45,4.667,5.633,5.346
			c0.055,0.205,0.17,0.404,0.302,0.581C5.757,5.795,5.558,5.68,5.353,5.625C4.674,5.443,4.27,5.629,4.179,5.969
			c-0.091,0.34,0.166,0.703,0.843,0.884c0.207,0.056,0.436,0.056,0.654,0.03c-0.203,0.088-0.4,0.203-0.551,0.354
			C4.63,7.732,4.588,8.176,4.837,8.422c0.248,0.25,0.691,0.209,1.188-0.287c0.15-0.15,0.266-0.35,0.354-0.553
			C6.353,7.801,6.353,8.031,6.407,8.236c0.182,0.678,0.545,0.936,0.885,0.846C7.631,8.99,7.816,8.586,7.636,7.908
			c-0.057-0.207-0.17-0.404-0.303-0.582c0.178,0.133,0.376,0.246,0.582,0.301c0.679,0.182,1.082-0.004,1.172-0.342
			C9.179,6.945,8.921,6.582,8.243,6.4z M6.765,7.117C6.494,7.189,6.216,7.029,6.144,6.759C6.069,6.488,6.231,6.208,6.503,6.137
			c0.271-0.074,0.549,0.088,0.621,0.358S7.036,7.045,6.765,7.117z"/>
		<path fill="#FFFFFF" d="M7.234,1.335C7.165,1.423,7.117,1.536,7.085,1.647C7.084,1.531,7.069,1.41,7.026,1.305
			C6.888,0.962,6.681,0.85,6.509,0.92C6.337,0.989,6.265,1.213,6.403,1.557c0.043,0.104,0.115,0.202,0.195,0.286
			C6.498,1.786,6.386,1.738,6.274,1.723C5.907,1.671,5.706,1.794,5.681,1.978c-0.025,0.184,0.133,0.358,0.5,0.41
			c0.111,0.016,0.232,0.001,0.346-0.026C6.426,2.42,6.329,2.494,6.259,2.582C6.031,2.875,6.038,3.11,6.185,3.224
			c0.146,0.114,0.377,0.064,0.604-0.228c0.069-0.088,0.117-0.2,0.149-0.312C6.939,2.801,6.954,2.92,6.997,3.026
			C7.136,3.37,7.343,3.481,7.515,3.412C7.688,3.343,7.759,3.118,7.62,2.773C7.577,2.669,7.505,2.572,7.425,2.487
			c0.102,0.058,0.213,0.105,0.324,0.121C8.116,2.66,8.317,2.536,8.343,2.353c0.025-0.185-0.133-0.358-0.5-0.41
			C7.731,1.927,7.61,1.941,7.497,1.969c0.1-0.059,0.197-0.132,0.267-0.221c0.229-0.292,0.222-0.528,0.075-0.642
			C7.692,0.992,7.463,1.042,7.234,1.335z M7.278,2.203C7.257,2.35,7.121,2.452,6.975,2.432C6.827,2.411,6.724,2.275,6.745,2.128
			c0.021-0.147,0.156-0.249,0.304-0.229S7.3,2.056,7.278,2.203z"/>
	</g>
</g>
</svg>
